<svg xmlns="http://www.w3.org/2000/svg" width="140.40" height="14.25" viewBox="590.32 51.01 140.40 14.25" fill="none">
<path d="M593.53 64.6609C593.047 64.6609 592.607 64.5463 592.208 64.317C591.822 64.0757 591.509 63.7619 591.267 63.3758C591.038 62.9776 590.923 62.5372 590.923 62.0545V54.2353C590.923 53.7526 591.038 53.3182 591.267 52.9321C591.509 52.5339 591.822 52.2202 592.208 51.9909C592.607 51.7496 593.047 51.6289 593.53 51.6289H603.919V54.2534H594.145C593.952 54.2534 593.801 54.3077 593.693 54.4163C593.584 54.5128 593.53 54.6637 593.53 54.8688V61.421C593.53 61.6141 593.584 61.7649 593.693 61.8735C593.801 61.9821 593.952 62.0364 594.145 62.0364H603.919V64.6609H593.53ZM608.376 64.6609C607.894 64.6609 607.453 64.5463 607.055 64.317C606.669 64.0757 606.355 63.7619 606.114 63.3758C605.885 62.9776 605.77 62.5372 605.77 62.0545V54.2353C605.77 53.7526 605.885 53.3182 606.114 52.9321C606.355 52.5339 606.669 52.2202 607.055 51.9909C607.453 51.7496 607.894 51.6289 608.376 51.6289H616.196C616.666 51.6289 617.095 51.7496 617.481 51.9909C617.879 52.2202 618.199 52.5339 618.44 52.9321C618.681 53.3182 618.802 53.7526 618.802 54.2353V62.0545C618.802 62.5372 618.681 62.9776 618.44 63.3758C618.199 63.7619 617.879 64.0757 617.481 64.317C617.095 64.5463 616.666 64.6609 616.196 64.6609H608.376ZM608.485 62.0364H616.051C616.087 62.0364 616.111 62.0304 616.123 62.0183C616.147 61.9942 616.159 61.964 616.159 61.9278V54.362C616.159 54.3258 616.147 54.3017 616.123 54.2896C616.111 54.2655 616.087 54.2534 616.051 54.2534H608.485C608.449 54.2534 608.419 54.2655 608.395 54.2896C608.383 54.3017 608.376 54.3258 608.376 54.362V61.9278C608.376 61.964 608.383 61.9942 608.395 62.0183C608.419 62.0304 608.449 62.0364 608.485 62.0364ZM620.795 64.6609V51.6289H623.565L631.185 60.7151V51.6289H633.827V64.6609H631.058L623.402 55.5385V64.6609H620.795ZM643.023 64.6609L635.475 51.6289H638.498L644.145 61.421L649.792 51.6289H652.815L645.267 64.6609H643.023Z" fill="url(#paint3_linear_2_273)"/>
<path d="M654.026 64.6609V51.6108H656.633V62.0364H667.058V64.6609H654.026ZM667.751 64.6609V51.6289H670.34V64.6609H667.751ZM671.984 64.6609V51.6289H674.754L682.374 60.7151V51.6289H685.016V64.6609H682.247L674.591 55.5385V64.6609H671.984ZM689.651 64.6609C689.168 64.6609 688.727 64.5463 688.329 64.317C687.943 64.0757 687.629 63.7619 687.388 63.3758C687.159 62.9776 687.044 62.5372 687.044 62.0545V54.2353C687.044 53.7526 687.159 53.3182 687.388 52.9321C687.629 52.5339 687.943 52.2202 688.329 51.9909C688.727 51.7496 689.168 51.6289 689.651 51.6289H697.452C697.934 51.6289 698.369 51.7496 698.755 51.9909C699.153 52.2202 699.473 52.5339 699.714 52.9321C699.956 53.3182 700.076 53.7526 700.076 54.2353V55.3575H697.434V54.362C697.434 54.3258 697.422 54.3017 697.397 54.2896C697.385 54.2655 697.361 54.2534 697.325 54.2534H689.759C689.723 54.2534 689.693 54.2655 689.669 54.2896C689.657 54.3017 689.651 54.3258 689.651 54.362V61.9278C689.651 61.964 689.657 61.9942 689.669 62.0183C689.693 62.0304 689.723 62.0364 689.759 62.0364H697.325C697.361 62.0364 697.385 62.0304 697.397 62.0183C697.422 61.9942 697.434 61.964 697.434 61.9278V59.792H694.556V57.1675H700.076V62.0545C700.076 62.5372 699.956 62.9776 699.714 63.3758C699.473 63.7619 699.153 64.0757 698.755 64.317C698.369 64.5463 697.934 64.6609 697.452 64.6609H689.651ZM704.639 64.6609C704.156 64.6609 703.716 64.5463 703.317 64.317C702.931 64.0757 702.618 63.7619 702.376 63.3758C702.147 62.9776 702.032 62.5372 702.032 62.0545V51.6289H704.639V61.9278C704.639 61.964 704.645 61.9942 704.657 62.0183C704.681 62.0304 704.711 62.0364 704.747 62.0364H712.313C712.349 62.0364 712.374 62.0304 712.386 62.0183C712.41 61.9942 712.422 61.964 712.422 61.9278V51.6289H715.064V62.0545C715.064 62.5372 714.944 62.9776 714.702 63.3758C714.461 63.7619 714.141 64.0757 713.743 64.317C713.357 64.5463 712.929 64.6609 712.458 64.6609H704.639ZM717.094 64.6609V54.2353C717.094 53.7526 717.208 53.3182 717.438 52.9321C717.679 52.5339 717.993 52.2202 718.379 51.9909C718.777 51.7496 719.218 51.6289 719.7 51.6289H727.501C727.984 51.6289 728.418 51.7496 728.805 51.9909C729.203 52.2202 729.523 52.5339 729.764 52.9321C730.005 53.3182 730.126 53.7526 730.126 54.2353V64.6609H727.483V60.3712H719.7V64.6609H717.094ZM719.7 57.7648H727.483V54.362C727.483 54.3258 727.471 54.3017 727.447 54.2896C727.435 54.2655 727.411 54.2534 727.375 54.2534H719.809C719.773 54.2534 719.742 54.2655 719.718 54.2896C719.706 54.3017 719.7 54.3258 719.7 54.362V57.7648Z" fill="url(#paint4_linear_2_273)"/>
<defs>
<linearGradient id="paint3_linear_2_273" x1="589.91" y1="57.6609" x2="1048.87" y2="57.6609" gradientUnits="userSpaceOnUse">
<stop stop-color="#91F7E9"/>
<stop offset="0.09" stop-color="#6798DD"/>
</linearGradient>
<linearGradient id="paint4_linear_2_273" x1="589.91" y1="57.6609" x2="1048.87" y2="57.6609" gradientUnits="userSpaceOnUse">
<stop stop-color="#F2EAFA"/>
<stop offset="0.192308" stop-color="#C18FFF"/>
</linearGradient>
</defs>
</svg>
