<svg width="99" height="10" viewBox="0 0 99 10" fill="none" xmlns="http://www.w3.org/2000/svg">
<path d="M1.78005 9.23373C1.45561 9.23373 1.15678 9.15262 0.883568 8.9904C0.618894 8.82818 0.405447 8.61473 0.243227 8.35006C0.0810072 8.07684 -0.000102738 7.77802 -0.000102738 7.45358V1.79296C-0.000102738 1.46852 0.0810072 1.17396 0.243227 0.909288C0.405447 0.636075 0.618894 0.418359 0.883568 0.256139C1.15678 0.0939195 1.45561 0.0128096 1.78005 0.0128096H9.1952V1.71612H2.13864C2.00203 1.71612 1.89104 1.75454 1.80566 1.83138C1.72882 1.90822 1.6904 2.01921 1.6904 2.16436V7.08218C1.6904 7.21879 1.72882 7.32978 1.80566 7.41516C1.89104 7.492 2.00203 7.53042 2.13864 7.53042H9.1952V9.23373H1.78005ZM12.285 9.23373C11.9606 9.23373 11.6618 9.15262 11.3886 8.9904C11.1239 8.82818 10.9104 8.61473 10.7482 8.35006C10.586 8.07684 10.5049 7.77802 10.5049 7.45358V1.79296C10.5049 1.46852 10.586 1.17396 10.7482 0.909288C10.9104 0.636075 11.1239 0.418359 11.3886 0.256139C11.6618 0.0939195 11.9606 0.0128096 12.285 0.0128096H17.9457C18.2701 0.0128096 18.5647 0.0939195 18.8293 0.256139C19.1026 0.418359 19.3203 0.636075 19.4825 0.909288C19.6447 1.17396 19.7258 1.46852 19.7258 1.79296V7.45358C19.7258 7.77802 19.6447 8.07684 19.4825 8.35006C19.3203 8.61473 19.1026 8.82818 18.8293 8.9904C18.5647 9.15262 18.2701 9.23373 17.9457 9.23373H12.285ZM12.3491 7.53042H17.856C17.8987 7.53042 17.9371 7.51761 17.9713 7.492C18.0054 7.45785 18.0225 7.41943 18.0225 7.37674V1.8698C18.0225 1.82711 18.0054 1.79296 17.9713 1.76735C17.9371 1.73319 17.8987 1.71612 17.856 1.71612H12.3491C12.3064 1.71612 12.268 1.73319 12.2338 1.76735C12.2082 1.79296 12.1954 1.82711 12.1954 1.8698V7.37674C12.1954 7.41943 12.2082 7.45785 12.2338 7.492C12.268 7.51761 12.3064 7.53042 12.3491 7.53042ZM21.1362 9.23373V0.0128096H22.9932L28.6538 6.7492V0.0128096H30.3571V9.23373H28.5001L22.8267 2.48453V9.23373H21.1362ZM36.8634 9.23373L31.5229 0.0128096H33.4952L37.619 7.18463L41.7556 0.0128096H43.715L38.3746 9.23373H36.8634Z" fill="url(#paint0_linear_2_939)"/>
<path d="M44.649 9.23373V2.95228e-06H46.3395V7.53042H53.8699V9.23373H44.649ZM54.4372 9.23373V0.0128096H56.1149V9.23373H54.4372ZM57.3555 9.23373V0.0128096H59.2125L64.8731 6.7492V0.0128096H66.5764V9.23373H64.7194L59.046 2.48453V9.23373H57.3555ZM69.7913 9.23373C69.4669 9.23373 69.168 9.15262 68.8948 8.9904C68.6302 8.82818 68.4167 8.61473 68.2545 8.35006C68.0923 8.07684 68.0112 7.77802 68.0112 7.45358V1.79296C68.0112 1.46852 68.0923 1.17396 68.2545 0.909288C68.4167 0.636075 68.6302 0.418359 68.8948 0.256139C69.168 0.0939195 69.4669 0.0128096 69.7913 0.0128096H75.4391C75.7636 0.0128096 76.0624 0.0939195 76.3356 0.256139C76.6088 0.418359 76.8265 0.636075 76.9887 0.909288C77.151 1.17396 77.2321 1.46852 77.2321 1.79296V2.51014H75.5288V1.8698C75.5288 1.82711 75.5117 1.79296 75.4775 1.76735C75.4434 1.73319 75.405 1.71612 75.3623 1.71612H69.8553C69.8127 1.71612 69.7742 1.73319 69.7401 1.76735C69.7145 1.79296 69.7017 1.82711 69.7017 1.8698V7.37674C69.7017 7.41943 69.7145 7.45785 69.7401 7.492C69.7742 7.51761 69.8127 7.53042 69.8553 7.53042H75.3623C75.405 7.53042 75.4434 7.51761 75.4775 7.492C75.5117 7.45785 75.5288 7.41943 75.5288 7.37674V5.71185H73.4413V4.00854H77.2321V7.45358C77.2321 7.77802 77.151 8.07684 76.9887 8.35006C76.8265 8.61473 76.6088 8.82818 76.3356 8.9904C76.0624 9.15262 75.7636 9.23373 75.4391 9.23373H69.7913ZM80.3964 9.23373C80.0719 9.23373 79.7731 9.15262 79.4999 8.9904C79.2352 8.82818 79.0218 8.61473 78.8595 8.35006C78.6973 8.07684 78.6162 7.77802 78.6162 7.45358V0.0128096H80.3067V7.37674C80.3067 7.41943 80.3195 7.45785 80.3451 7.492C80.3793 7.51761 80.4177 7.53042 80.4604 7.53042H85.9673C86.01 7.53042 86.0484 7.51761 86.0826 7.492C86.1167 7.45785 86.1338 7.41943 86.1338 7.37674V0.0128096H87.8371V7.45358C87.8371 7.77802 87.756 8.07684 87.5938 8.35006C87.4316 8.61473 87.2139 8.82818 86.9407 8.9904C86.676 9.15262 86.3814 9.23373 86.057 9.23373H80.3964ZM89.2731 9.23373V1.79296C89.2731 1.46852 89.3542 1.17396 89.5164 0.909288C89.6786 0.636075 89.8921 0.418359 90.1568 0.256139C90.43 0.0939195 90.7288 0.0128096 91.0532 0.0128096H96.7011C97.0255 0.0128096 97.3243 0.0939195 97.5975 0.256139C97.8708 0.418359 98.0885 0.636075 98.2507 0.909288C98.4129 1.17396 98.494 1.46852 98.494 1.79296V9.23373H96.7907V6.13447H90.9636V9.23373H89.2731ZM90.9636 4.44397H96.7907V1.8698C96.7907 1.82711 96.7736 1.79296 96.7395 1.76735C96.7053 1.73319 96.6669 1.71612 96.6242 1.71612H91.1173C91.0746 1.71612 91.0362 1.73319 91.002 1.76735C90.9764 1.79296 90.9636 1.82711 90.9636 1.8698V4.44397Z" fill="url(#paint1_linear_2_939)"/>
<defs>
<linearGradient id="paint0_linear_2_939" x1="-0.717285" y1="5.10512" x2="104.672" y2="5.10512" gradientUnits="userSpaceOnUse">
<stop stop-color="#93FDE9"/>
<stop offset="0.192308" stop-color="#7EA9E6"/>
</linearGradient>
<linearGradient id="paint1_linear_2_939" x1="-0.717285" y1="5.10512" x2="104.672" y2="5.10512" gradientUnits="userSpaceOnUse">
<stop stop-color="#F2EAFA"/>
<stop offset="0.769231" stop-color="#C28FFF"/>
</linearGradient>
</defs>
</svg>
